Coordinates
version=1
nRows=27
nColumns=12
inDegrees=yes

Units are S.I. units (second, meters, Newtons, ...)
Angles are in degrees

endheader
time	SC_y	SC_z	SC_x	AC_y	AC_z	AC_x	GH_y	GH_z	GH_yy	EL_x	PS_y
       0.0              -51.02          37.99          78.64          44.99          -5.86         -9.002          144.8          45.29         -19.14          44.35          63.69
   0.03047              -51.02          37.98          78.64          44.99         -5.858         -9.002          144.7          45.28         -19.14          44.36          63.69
   0.06095              -51.02          37.98          78.64          44.99         -5.856         -9.003          144.7          45.28         -19.14          44.36          63.69
   0.09142              -51.02          37.98          78.64          44.99         -5.854         -9.004          144.7          45.27         -19.14          44.36          63.69
    0.1219              -51.02          37.98          78.64          44.99         -5.852         -9.004          144.6          45.26         -19.14          44.37          63.69
    0.1524              -51.02          37.97          78.64          44.99          -5.85         -9.005          144.6          45.26         -19.14          44.37          63.69
    0.1828              -51.02          37.97          78.64          44.99         -5.848         -9.006          144.6          45.25         -19.13          44.38          63.69
    0.2133              -51.02          37.97          78.64          44.98         -5.845         -9.006          144.5          45.24         -19.13          44.38          63.69
    0.2438              -51.03          37.97          78.64          44.98         -5.842         -9.007          144.5          45.23         -19.13          44.39          63.68
    0.2743              -51.03          37.96          78.64          44.98         -5.839         -9.008          144.4          45.22         -19.13          44.39          63.68
    0.3047              -51.03          37.96          78.64          44.98         -5.836         -9.009          144.4          45.21         -19.13           44.4          63.68
    0.3352              -51.03          37.95          78.64          44.97         -5.833          -9.01          144.3           45.2         -19.13          44.41          63.68
    0.3657              -51.03          37.95          78.64          44.97         -5.829         -9.011          144.2          45.19         -19.12          44.41          63.68
    0.3962              -51.03          37.95          78.64          44.97         -5.825         -9.012          144.2          45.18         -19.12          44.42          63.68
    0.4266              -51.03          37.94          78.64          44.97         -5.821         -9.014          144.1          45.17         -19.12          44.43          63.67
    0.4571              -51.04          37.93          78.64          44.96         -5.816         -9.015          144.0          45.15         -19.12          44.44          63.67
    0.4876              -51.04          37.93          78.64          44.96         -5.811         -9.017          143.9          45.13         -19.11          44.45          63.67
    0.5181              -51.04          37.92          78.64          44.96         -5.806         -9.018          143.8          45.12         -19.11          44.46          63.67
    0.5485              -51.04          37.92          78.64          44.95           -5.8          -9.02          143.7           45.1         -19.11          44.47          63.66
     0.579              -51.04          37.91          78.64          44.95         -5.793         -9.022          143.6          45.08          -19.1          44.48          63.66
    0.6095              -51.05           37.9          78.64          44.94         -5.786         -9.024          143.5          45.06          -19.1           44.5          63.66
      0.64              -51.05          37.89          78.64          44.94         -5.778         -9.027          143.4          45.03         -19.09          44.51          63.65
    0.6704              -51.05          37.88          78.64          44.93         -5.769         -9.029          143.2           45.0         -19.09          44.53          63.65
    0.7009              -51.06          37.87          78.64          44.92          -5.76         -9.032          143.0          44.97         -19.08          44.55          63.64
    0.7314              -51.06          37.85          78.64          44.92         -5.749         -9.036          142.9          44.94         -19.08          44.57          63.64
    0.7618              -51.06          37.84          78.64          44.91         -5.737         -9.039          142.6           44.9         -19.07          44.59          63.63
    0.7923              -51.07          37.82          78.64           44.9         -5.723         -9.043          142.4          44.86         -19.06          44.62          63.62
